<?xml version="1.0" encoding="utf-8"?>
<!-- Generator: Adobe Illustrator 25.0.1, SVG Export Plug-In . SVG Version: 6.00 Build 0)  -->
<svg version="1.1" id="Layer_1" xmlns="http://www.w3.org/2000/svg" xmlns:xlink="http://www.w3.org/1999/xlink" x="0px" y="0px"
	 viewBox="0 0 292.1 64.5" style="enable-background:new 0 0 292.1 64.5;" xml:space="preserve">
<style type="text/css">
	.st0{fill:#20335F;}
	.st1{fill:#7FA5D4;}
	.st2{opacity:0.7;fill:#FFFFFF;}
	.st3{fill:none;stroke:#020203;stroke-miterlimit:10;}
	.st4{fill:none;stroke:#676767;stroke-width:0.7238;stroke-miterlimit:10;}
	.st5{fill:#D8E1ED;}
	.st6{fill:none;stroke:#020203;stroke-width:1.0824;stroke-miterlimit:10;}
	.st7{fill:#020203;}
</style>
<g>
	<g>
		<path class="st0" d="M119.5,34.4c-1.5-0.5-2.9-1-4.1-1.6c-1.2-0.5-2.3-1.2-3.2-1.9c-0.9-0.8-1.6-1.7-2.1-2.7
			c-0.5-1-0.7-2.3-0.7-3.8c0-2.9,1.1-5.2,3.4-7c2.2-1.7,5.4-2.6,9.4-2.6c1.5,0,2.8,0.1,4.1,0.3c1.3,0.2,2.4,0.5,3.3,1
			c0.9,0.4,1.6,1,2.1,1.6c0.5,0.7,0.8,1.4,0.8,2.3c0,0.9-0.2,1.7-0.6,2.3c-0.4,0.6-0.9,1.2-1.5,1.6c-0.8-0.5-1.8-0.9-3-1.3
			c-1.3-0.4-2.7-0.5-4.2-0.5c-1.5,0-2.7,0.2-3.4,0.6c-0.7,0.4-1.1,1-1.1,1.6c0,0.5,0.2,0.9,0.7,1.3c0.4,0.3,1.1,0.6,2,0.9l2.7,0.9
			c3.2,1,5.7,2.3,7.4,3.9c1.7,1.6,2.6,3.8,2.6,6.5c0,2.9-1.1,5.3-3.4,7.1c-2.3,1.8-5.7,2.7-10.1,2.7c-1.6,0-3-0.1-4.4-0.4
			c-1.4-0.3-2.5-0.6-3.6-1.1c-1-0.5-1.8-1.1-2.4-1.9c-0.6-0.7-0.8-1.6-0.8-2.5c0-1,0.3-1.8,0.9-2.5c0.6-0.7,1.2-1.2,1.9-1.6
			c1,0.8,2.1,1.4,3.5,2c1.4,0.5,2.9,0.8,4.6,0.8c1.7,0,2.9-0.3,3.6-0.8c0.7-0.5,1-1.1,1-1.8c0-0.7-0.3-1.2-0.8-1.6
			c-0.5-0.4-1.3-0.7-2.3-1.1L119.5,34.4z"/>
		<path class="st0" d="M138.2,22.1c0.3-0.1,0.9-0.2,1.6-0.3c0.7-0.1,1.5-0.2,2.3-0.2c0.8,0,1.4,0.1,2,0.2c0.6,0.1,1.1,0.3,1.5,0.6
			s0.7,0.7,1,1.3c0.2,0.5,0.3,1.2,0.3,2.1v11.1c0,1.4,0.3,2.4,1,3c0.7,0.6,1.7,0.9,3,0.9c0.8,0,1.4-0.1,1.9-0.2
			c0.5-0.1,0.9-0.3,1.2-0.4v-18c0.3-0.1,0.9-0.2,1.6-0.3c0.7-0.1,1.5-0.2,2.3-0.2c0.8,0,1.4,0.1,2,0.2c0.6,0.1,1.1,0.3,1.5,0.6
			c0.4,0.3,0.7,0.7,1,1.3c0.2,0.5,0.3,1.2,0.3,2.1v15.6c0,1.7-0.7,3-2.2,3.9c-1.2,0.8-2.6,1.3-4.3,1.7c-1.7,0.4-3.5,0.6-5.4,0.6
			c-1.9,0-3.6-0.2-5.1-0.6c-1.6-0.4-2.9-1-4-1.9c-1.1-0.9-2-2-2.6-3.3c-0.6-1.4-0.9-3-0.9-4.9V22.1z"/>
		<path class="st0" d="M167.1,34.3c0-2.3,0.3-4.2,1-5.9c0.7-1.7,1.6-3,2.9-4.1c1.2-1.1,2.6-1.9,4.3-2.4c1.6-0.5,3.4-0.8,5.3-0.8
			c0.7,0,1.4,0.1,2,0.2c0.7,0.1,1.2,0.3,1.6,0.4v-8.3c0.3-0.1,0.9-0.2,1.6-0.3c0.8-0.1,1.5-0.2,2.3-0.2c0.8,0,1.4,0.1,2,0.2
			c0.6,0.1,1.1,0.3,1.5,0.6c0.4,0.3,0.7,0.7,0.9,1.3c0.2,0.5,0.3,1.2,0.3,2.1v24.4c0,1.6-0.8,2.9-2.3,3.9c-1,0.7-2.3,1.2-3.9,1.7
			s-3.4,0.7-5.5,0.7c-2.2,0-4.2-0.3-6-0.9c-1.8-0.6-3.3-1.5-4.5-2.7s-2.1-2.6-2.8-4.2C167.4,38.2,167.1,36.3,167.1,34.3z
			 M181.7,27.8c-1.9,0-3.3,0.5-4.3,1.6c-1,1.1-1.5,2.7-1.5,4.8c0,2.1,0.5,3.7,1.4,4.8c0.9,1.1,2.3,1.6,4,1.6c0.6,0,1.2-0.1,1.7-0.3
			c0.5-0.2,0.9-0.4,1.2-0.6V28.5C183.5,28,182.6,27.8,181.7,27.8z"/>
		<path class="st0" d="M224.2,34.3c0,2.1-0.3,4-1,5.7c-0.7,1.7-1.6,3.1-2.8,4.2s-2.6,2-4.2,2.6c-1.6,0.6-3.5,0.9-5.5,0.9
			c-2,0-3.9-0.3-5.5-0.9c-1.6-0.6-3.1-1.5-4.2-2.7c-1.2-1.1-2.1-2.5-2.8-4.2c-0.7-1.6-1-3.5-1-5.6c0-2,0.3-3.9,1-5.5
			c0.7-1.6,1.6-3,2.8-4.2s2.6-2,4.2-2.7c1.6-0.6,3.5-0.9,5.5-0.9c2,0,3.9,0.3,5.5,1c1.6,0.6,3.1,1.5,4.2,2.7
			c1.2,1.1,2.1,2.5,2.8,4.2C223.9,30.5,224.2,32.3,224.2,34.3z M206.2,34.3c0,2.1,0.4,3.7,1.2,4.8c0.8,1.1,1.9,1.7,3.4,1.7
			c1.4,0,2.5-0.6,3.3-1.7c0.8-1.1,1.2-2.7,1.2-4.8c0-2.1-0.4-3.6-1.2-4.8c-0.8-1.1-1.9-1.7-3.3-1.7c-1.4,0-2.6,0.6-3.3,1.7
			C206.6,30.6,206.2,32.2,206.2,34.3z"/>
		<path class="st0" d="M242.6,27.9c-0.9,0-1.7,0.1-2.4,0.4c-0.8,0.3-1.4,0.7-2,1.2c-0.6,0.5-1,1.2-1.4,2c-0.3,0.8-0.5,1.7-0.5,2.8
			c0,2.1,0.6,3.7,1.8,4.8c1.2,1.1,2.7,1.6,4.5,1.6c1,0,1.9-0.1,2.7-0.4c0.8-0.2,1.4-0.5,2-0.8c0.7,0.5,1.2,1,1.5,1.6
			c0.3,0.6,0.5,1.2,0.5,2c0,1.4-0.7,2.5-2,3.3s-3.2,1.2-5.6,1.2c-2.2,0-4.1-0.3-5.9-1c-1.7-0.6-3.3-1.5-4.5-2.7s-2.2-2.5-2.9-4.1
			c-0.7-1.6-1-3.4-1-5.4c0-2.3,0.4-4.2,1.1-5.9c0.7-1.7,1.7-3.1,3-4.2c1.3-1.1,2.7-1.9,4.4-2.5c1.7-0.5,3.4-0.8,5.3-0.8
			c2.5,0,4.4,0.4,5.7,1.3c1.3,0.9,2,2,2,3.4c0,0.7-0.2,1.3-0.5,1.8c-0.3,0.6-0.7,1.1-1.1,1.5c-0.6-0.3-1.3-0.5-2.1-0.8
			S243.5,27.9,242.6,27.9z"/>
		<path class="st0" d="M262.5,46.7c-0.4,0.1-0.9,0.2-1.7,0.3s-1.5,0.2-2.2,0.2s-1.4-0.1-2-0.2c-0.6-0.1-1.1-0.3-1.5-0.6
			c-0.4-0.3-0.7-0.7-1-1.3c-0.2-0.5-0.3-1.2-0.3-2.1V13.2c0.4-0.1,0.9-0.2,1.7-0.3c0.7-0.1,1.5-0.2,2.2-0.2c0.8,0,1.4,0.1,2,0.2
			c0.6,0.1,1.1,0.3,1.5,0.6c0.4,0.3,0.7,0.7,1,1.3c0.2,0.5,0.3,1.2,0.3,2.1V46.7z"/>
		<path class="st0" d="M281.3,47.6c-2,0-3.9-0.3-5.6-0.8s-3.2-1.4-4.5-2.5c-1.3-1.1-2.3-2.6-3-4.3c-0.7-1.7-1.1-3.7-1.1-6
			c0-2.3,0.4-4.2,1.1-5.8c0.7-1.6,1.7-3,2.9-4c1.2-1,2.6-1.8,4.1-2.3c1.5-0.5,3.1-0.7,4.7-0.7c1.8,0,3.5,0.3,5,0.8
			c1.5,0.5,2.8,1.3,3.9,2.3c1.1,1,1.9,2.1,2.5,3.4c0.6,1.3,0.9,2.8,0.9,4.4c0,1.2-0.3,2.1-1,2.7c-0.7,0.6-1.6,1-2.7,1.2l-12.7,1.9
			c0.4,1.1,1.1,2,2.3,2.5c1.2,0.6,2.5,0.8,4,0.8c1.4,0,2.7-0.2,4-0.5c1.3-0.4,2.3-0.8,3.1-1.3c0.5,0.3,1,0.8,1.4,1.4
			c0.4,0.6,0.6,1.3,0.6,2c0,1.5-0.7,2.7-2.2,3.4c-1.1,0.6-2.3,1-3.7,1.2S282.5,47.6,281.3,47.6z M279.8,27.4c-0.8,0-1.5,0.1-2.1,0.4
			c-0.6,0.3-1.1,0.6-1.5,1.1c-0.4,0.4-0.7,0.9-0.8,1.4c-0.2,0.5-0.3,1.1-0.3,1.6l8.8-1.4c-0.1-0.7-0.5-1.4-1.1-2.1
			C282,27.7,281.1,27.4,279.8,27.4z"/>
	</g>
</g>
<g>
	<path class="st1" d="M32.8,50.1c3.5,0,7.3-0.1,11.4-0.5c5.1-0.5,9.7-1.3,13.7-2.2c3.6-4.2,5.5-10,4.8-15.7
		C61.4,21.3,52.1,15,41.7,16.3S24,27,25.3,37.3C26,42.6,28.8,47.2,32.8,50.1z"/>
	<path class="st2" d="M34.7,19.2c2.1-0.1,2.8,3.9,2.9,5.6c0.2,3.4-1.6,8-5.2,8.5c-2.6,0.3-6.7-1.5-6.3-4
		C26.8,25.1,32.7,19.3,34.7,19.2z"/>
	<path class="st3" d="M88.1,20.6c-5.9-4.2-16.2-10.2-30-12.5C29.4,3.5,7.5,18.4,2.3,22.1"/>
	<path class="st3" d="M42.2,14.5c1.6-0.7,4.9-2.7,7.4-7.7c1.2-2.5,2.6-5.2,2.6-6.7"/>
	<path class="st3" d="M57.8,16.1c1.6-0.7,4.9-2.7,7.4-7.7c1.2-2.5,2.6-5.2,2.6-6.7"/>
	<path class="st3" d="M71,19.9c1.6-0.7,4.9-2.7,7.4-7.7C79.6,9.7,80.9,7,81,5.4"/>
	<path class="st3" d="M64.4,45.7"/>
	<path class="st4" d="M91.6,30.8c2.5-0.6,5-1.2,7.5-1.8"/>
	<path class="st4" d="M89.8,39.8c2.7,1,5.4,2,8.2,3"/>
	<path class="st4" d="M13.7,52.5c8.3,1.3,16.6,2.5,24.9,3.8c10.8,1.7,21.6,3.3,32.3,5"/>
	<line class="st4" x1="13.7" y1="59" x2="62.8" y2="64.2"/>
	<path class="st3" d="M61,54.9"/>
	<path class="st5" d="M32.8,50.1c3.5,0,7.3-0.1,11.3-0.5c5.1-0.5,9.8-1.3,13.9-2.2c3.5-4.2,4.9-9.4,3.7-11.7
		c-3.3-6.6-33.8,0.1-34.3,7.8C27.2,45.5,29.5,48.1,32.8,50.1z"/>
	<path class="st6" d="M32.8,50.1c3.5,0,7.3-0.1,11.4-0.5c5.1-0.5,9.7-1.3,13.7-2.2c3.6-4.2,5.5-10,4.8-15.7
		C61.4,21.3,52.1,15,41.7,16.3S24,27,25.3,37.3C26,42.6,28.8,47.2,32.8,50.1z"/>
	<g>
		<path class="st7" d="M44.4,41.8c1.9-0.2,3.4-0.9,4.4-2c1-1.1,1.4-2.5,1.2-4.3c-0.3,0.3-0.9,0.7-1.7,1.2c-0.8,0.5-1.9,0.8-3.3,0.9
			c-1.4,0.2-2.6,0.1-3.8-0.1c-1.2-0.2-2.2-0.7-3.1-1.4c-0.9-0.7-1.6-1.5-2.2-2.6c-0.6-1-1-2.3-1.1-3.8c-0.2-1.3-0.1-2.5,0.2-3.7
			c0.3-1.2,0.8-2.3,1.6-3.3c0.8-1,1.8-1.8,3.1-2.5c1.3-0.7,2.8-1.1,4.5-1.3c3.5-0.4,6.4,0.4,8.7,2.5c2.3,2.1,3.7,5.3,4.2,9.7
			c0.3,2.5,0.3,4.7-0.1,6.6c-0.4,1.9-1.1,3.6-2,5c-1,1.4-2.2,2.5-3.6,3.3c-1.5,0.8-3.1,1.3-5,1.6c-2.4,0.3-4.3,0.2-5.7-0.3
			c-1.4-0.5-2.2-1.4-2.4-2.7c-0.1-0.6,0-1.2,0.2-1.9c0.2-0.6,0.5-1.1,0.8-1.4c0.8,0.3,1.7,0.4,2.6,0.5
			C42.8,41.9,43.6,41.9,44.4,41.8z"/>
	</g>
	<g>
		<path class="st7" d="M89.8,37.7c-1.1,1.3-2.6,2.4-4.1,3.2c-1.5,0.8-3.1,1.5-4.8,2.1c-3.2,1.2-6.5,2-9.7,2.9
			c-3.2,0.9-6.3,1.8-9.7,2.6c-3.3,0.7-6.7,1.3-10.1,1.8c-6.8,0.9-13.6,1.1-20.4,0.7c-3.4-0.3-6.8-0.7-10.1-1.3
			c-3.3-0.7-6.6-1.5-9.7-3l0.2-0.4c3.1,1.2,6.4,1.7,9.7,2.1c3.3,0.4,6.6,0.5,10,0.6c6.7,0,13.3-0.6,19.8-1.9
			c1.6-0.4,3.2-0.7,4.8-1.1c1.6-0.4,3.2-0.8,4.8-1.3c3.1-0.9,6.4-2,9.8-2.6c3.3-0.7,6.7-1.2,9.9-1.8c3.2-0.6,6.4-1.3,9.4-2.9
			L89.8,37.7z"/>
	</g>
	<g>
		<path class="st7" d="M94.4,37.5c-6.5-6.8-14.2-12.3-22.6-15.8c-4.2-1.7-8.6-3.1-13.1-3.8c-4.5-0.8-9-1-13.5-0.7
			c-4.5,0.3-9,1.2-13.3,2.6c-4.3,1.4-8.4,3.4-12.3,5.8C12,30.6,5.3,37.3,0,45c3.9-8.6,10.2-16.2,17.9-21.9c7.8-5.7,17.3-9.2,27-9.9
			c4.9-0.3,9.7,0,14.5,0.9c4.7,1,9.4,2.5,13.7,4.7C81.8,23.2,89.2,29.7,94.4,37.5z"/>
	</g>
</g>
<g>
</g>
<g>
</g>
<g>
</g>
<g>
</g>
<g>
</g>
<g>
</g>
</svg>
