<?xml version="1.0" encoding="utf-8"?>
<!-- Generator: Adobe Illustrator 25.0.1, SVG Export Plug-In . SVG Version: 6.00 Build 0)  -->
<svg version="1.1" id="Layer_1" xmlns="http://www.w3.org/2000/svg" xmlns:xlink="http://www.w3.org/1999/xlink" x="0px" y="0px"
	 viewBox="0 0 103.4 103.4" style="enable-background:new 0 0 103.4 103.4;" xml:space="preserve">
<style type="text/css">
	.st0{fill:#FFFFFF;}
	.st1{fill:#7FA5D4;}
	.st2{opacity:0.7;fill:#FFFFFF;}
	.st3{fill:none;stroke:#020203;stroke-width:1.7849;stroke-miterlimit:10;}
	.st4{fill:none;stroke:#676767;stroke-width:1.292;stroke-miterlimit:10;}
	.st5{fill:#D8E1ED;}
	.st6{fill:none;stroke:#020203;stroke-width:1.932;stroke-miterlimit:10;}
	.st7{fill:#020203;}
</style>
<path class="st0" d="M83.4,103.4H20c-11.1,0-20-9-20-20V20C0,9,9,0,20,0h63.4c11.1,0,20,9,20,20v63.4
	C103.4,94.5,94.5,103.4,83.4,103.4z"/>
<g>
	<path class="st1" d="M29.6,84.1c6.2,0,13-0.2,20.3-1c9-0.9,17.2-2.3,24.5-3.9c6.4-7.6,9.9-17.9,8.6-28.1
		c-2.3-18.5-18.8-29.7-37.3-27.4S14.1,42.7,16.3,61.2C17.5,70.7,22.5,78.8,29.6,84.1z"/>
	<path class="st2" d="M33,28.9c3.8-0.2,5,6.9,5.2,10.1c0.4,6-2.9,14.3-9.3,15.2c-4.7,0.6-12-2.7-11.2-7.1C19.1,39.4,29.5,29,33,28.9
		z"/>
	<path class="st3" d="M128.3,31.4c-10.6-7.5-28.8-18.3-53.6-22.3c-51-8.3-90.2,18.3-99.4,25"/>
	<path class="st3" d="M46.5,20.5c2.8-1.3,8.7-4.8,13.1-13.8c2.2-4.5,4.6-9.2,4.7-12"/>
	<path class="st3" d="M74.3,23.4c2.8-1.3,8.7-4.8,13.1-13.8c2.2-4.5,4.6-9.2,4.7-12"/>
	<path class="st3" d="M97.8,30.1c2.8-1.3,8.7-4.8,13.1-13.8c2.2-4.5,4.6-9.2,4.7-12"/>
	<path class="st3" d="M86.2,76.1"/>
	<path class="st4" d="M134.7,49.5c4.5-1.1,8.9-2.1,13.4-3.2"/>
	<path class="st4" d="M131.5,65.5c4.9,1.8,9.7,3.6,14.6,5.3"/>
	<path class="st4" d="M-4.3,88.4c14.8,2.3,29.6,4.5,44.4,6.8c19.2,2.9,38.5,5.9,57.7,8.8"/>
	<line class="st4" x1="-4.3" y1="99.9" x2="83.2" y2="109.2"/>
	<path class="st3" d="M80.1,92.6"/>
	<path class="st5" d="M29.8,84.1c6.2,0,12.9-0.3,20.2-1c9.2-0.9,17.4-2.3,24.7-4c6.2-7.5,8.7-16.8,6.6-21
		c-5.8-11.7-60.4,0.3-61.3,14C19.8,75.8,23.8,80.4,29.8,84.1z"/>
	<path class="st6" d="M29.6,84.1c6.2,0,13-0.2,20.3-1c9-0.9,17.2-2.3,24.5-3.9c6.4-7.6,9.9-17.9,8.6-28.1
		c-2.3-18.5-18.8-29.7-37.3-27.4S14.1,42.7,16.3,61.2C17.5,70.7,22.5,78.8,29.6,84.1z"/>
	<g>
		<path class="st7" d="M50.4,69.2c3.4-0.4,6-1.6,7.8-3.6c1.8-2,2.6-4.5,2.2-7.6c-0.5,0.5-1.5,1.2-3,2.1c-1.5,0.8-3.5,1.4-5.9,1.7
			c-2.4,0.3-4.7,0.2-6.8-0.2c-2.1-0.4-3.9-1.3-5.5-2.4c-1.6-1.2-2.9-2.7-4-4.6c-1-1.9-1.7-4.1-2-6.7c-0.3-2.3-0.1-4.5,0.4-6.6
			c0.5-2.1,1.5-4.1,2.9-5.9c1.4-1.8,3.2-3.3,5.5-4.5c2.2-1.2,4.9-2,8.1-2.4c6.3-0.8,11.4,0.7,15.5,4.5c4.1,3.8,6.6,9.5,7.6,17.2
			c0.5,4.4,0.5,8.3-0.2,11.8c-0.7,3.5-1.9,6.5-3.6,8.9c-1.7,2.5-3.9,4.4-6.5,5.9c-2.6,1.5-5.6,2.4-8.9,2.8
			c-4.2,0.5-7.6,0.3-10.2-0.5c-2.5-0.9-3.9-2.5-4.2-4.9c-0.1-1.1,0-2.2,0.4-3.3c0.4-1.1,0.9-2,1.5-2.6c1.5,0.5,3.1,0.8,4.7,0.9
			C47.6,69.4,49,69.3,50.4,69.2z"/>
	</g>
	<g>
		<path class="st7" d="M131.5,61.8c-2,2.4-4.6,4.2-7.3,5.8c-2.7,1.5-5.6,2.7-8.5,3.8c-5.8,2.1-11.6,3.6-17.3,5.2
			c-5.7,1.6-11.3,3.2-17.3,4.6l-2.2,0.5l-2.3,0.4L72,82.9c-1.5,0.3-3,0.5-4.5,0.7L63,84.3c-3,0.4-6,0.7-9.1,1l-4.6,0.3l-2.3,0.2
			l-2.3,0.1L40.3,86c-1.5,0-3,0-4.6,0c-3,0-6.1-0.2-9.1-0.4c-6-0.5-12.1-1.2-18-2.4C2.7,82-3.2,80.5-8.7,77.8l0.3-0.6
			c2.8,1.1,5.7,1.8,8.6,2.4c1.4,0.3,2.9,0.5,4.4,0.8C6,80.7,7.5,80.8,9,81c5.9,0.7,11.9,1,17.8,1c3-0.1,5.9,0,8.9-0.2
			c1.5-0.1,3-0.1,4.4-0.3l4.4-0.4l2.2-0.2l2.2-0.3l4.4-0.5c2.9-0.5,5.8-0.9,8.8-1.5c5.8-1.1,11.5-2.6,17.2-4.3
			c5.5-1.7,11.5-3.5,17.4-4.7c5.9-1.2,11.9-2.1,17.7-3.2c5.8-1.1,11.5-2.3,16.7-5.2L131.5,61.8z"/>
	</g>
	<g>
		<path class="st7" d="M139.7,61.6c-11.6-12.1-25.3-21.9-40.3-28.3c-15.1-6.3-31.4-9.1-47.5-8c-8,0.6-16,2.1-23.7,4.7
			c-7.7,2.5-15,6.1-21.9,10.4c-3.5,2.2-6.7,4.6-10,7.2c-3.2,2.6-6.3,5.3-9.2,8.2c-5.9,5.8-11.3,12.2-16,19.1
			c3.4-7.7,8.1-14.9,13.4-21.5c2.7-3.3,5.6-6.4,8.7-9.4c3.1-3,6.4-5.7,9.9-8.2C17.1,25.7,34,19.4,51.4,18.3
			c17.3-1.2,34.9,2.3,50.3,10C117.1,36,130.4,47.6,139.7,61.6z"/>
	</g>
</g>
<g>
</g>
<g>
</g>
<g>
</g>
<g>
</g>
<g>
</g>
<g>
</g>
</svg>
