<?xml version="1.0" encoding="utf-8"?>
<!-- Generator: Adobe Illustrator 25.0.1, SVG Export Plug-In . SVG Version: 6.00 Build 0)  -->
<svg version="1.1" id="Layer_1" xmlns="http://www.w3.org/2000/svg" xmlns:xlink="http://www.w3.org/1999/xlink" x="0px" y="0px"
	 viewBox="0 0 103.4 103.4" style="enable-background:new 0 0 103.4 103.4;" xml:space="preserve">
<style type="text/css">
	.st0{fill:#FFFFFF;}
	.st1{fill:#7FA5D4;}
	.st2{opacity:0.7;fill:#FFFFFF;}
	.st3{fill:none;stroke:#020203;stroke-miterlimit:10;}
	.st4{fill:none;stroke:#676767;stroke-width:0.7238;stroke-miterlimit:10;}
	.st5{fill:#D8E1ED;}
	.st6{fill:none;stroke:#020203;stroke-width:1.0824;stroke-miterlimit:10;}
	.st7{fill:#020203;}
</style>
<path class="st0" d="M83.4,103.4H20c-11.1,0-20-9-20-20V20C0,9,9,0,20,0h63.4c11.1,0,20,9,20,20v63.4
	C103.4,94.5,94.5,103.4,83.4,103.4z"/>
<g>
	<path class="st1" d="M34.8,69.9c3.5,0,7.3-0.1,11.4-0.5c5.1-0.5,9.7-1.3,13.7-2.2c3.6-4.2,5.5-10,4.8-15.7
		c-1.3-10.3-10.6-16.6-20.9-15.4s-17.7,10.7-16.4,21C28,62.4,30.8,67,34.8,69.9z"/>
	<path class="st2" d="M36.7,39c2.1-0.1,2.8,3.9,2.9,5.6c0.2,3.4-1.6,8-5.2,8.5c-2.6,0.3-6.7-1.5-6.3-4C28.9,44.9,34.7,39.1,36.7,39z
		"/>
	<path class="st3" d="M90.1,40.4c-5.9-4.2-16.2-10.2-30-12.5c-28.6-4.6-50.5,10.3-55.7,14"/>
	<path class="st3" d="M44.3,34.3c1.6-0.7,4.9-2.7,7.4-7.7c1.2-2.5,2.6-5.2,2.6-6.7"/>
	<path class="st3" d="M59.8,35.9c1.6-0.7,4.9-2.7,7.4-7.7c1.2-2.5,2.6-5.2,2.6-6.7"/>
	<path class="st3" d="M73,39.7c1.6-0.7,4.9-2.7,7.4-7.7c1.2-2.5,2.6-5.2,2.6-6.7"/>
	<path class="st3" d="M66.5,65.5"/>
	<path class="st4" d="M93.7,50.6c2.5-0.6,5-1.2,7.5-1.8"/>
	<path class="st4" d="M91.9,59.5c2.7,1,5.4,2,8.2,3"/>
	<path class="st4" d="M15.8,72.3c8.3,1.3,16.6,2.5,24.9,3.8c10.8,1.7,21.6,3.3,32.3,5"/>
	<line class="st4" x1="15.8" y1="78.8" x2="64.8" y2="84"/>
	<path class="st3" d="M63.1,74.7"/>
	<path class="st5" d="M34.9,69.9c3.5,0,7.3-0.1,11.3-0.5c5.1-0.5,9.8-1.3,13.9-2.2c3.5-4.2,4.9-9.4,3.7-11.7
		c-3.3-6.6-33.8,0.1-34.3,7.8C29.3,65.3,31.5,67.9,34.9,69.9z"/>
	<path class="st6" d="M34.8,69.9c3.5,0,7.3-0.1,11.4-0.5c5.1-0.5,9.7-1.3,13.7-2.2c3.6-4.2,5.5-10,4.8-15.7
		c-1.3-10.3-10.6-16.6-20.9-15.4s-17.7,10.7-16.4,21C28,62.4,30.8,67,34.8,69.9z"/>
	<g>
		<path class="st7" d="M46.4,61.6c1.9-0.2,3.4-0.9,4.4-2c1-1.1,1.4-2.5,1.2-4.3c-0.3,0.3-0.9,0.7-1.7,1.2c-0.8,0.5-1.9,0.8-3.3,0.9
			c-1.4,0.2-2.6,0.1-3.8-0.1c-1.2-0.2-2.2-0.7-3.1-1.4c-0.9-0.7-1.6-1.5-2.2-2.6c-0.6-1-1-2.3-1.1-3.8c-0.2-1.3-0.1-2.5,0.2-3.7
			c0.3-1.2,0.8-2.3,1.6-3.3c0.8-1,1.8-1.8,3.1-2.5c1.3-0.7,2.8-1.1,4.5-1.3c3.5-0.4,6.4,0.4,8.7,2.5c2.3,2.1,3.7,5.3,4.2,9.7
			c0.3,2.5,0.3,4.7-0.1,6.6c-0.4,1.9-1.1,3.6-2,5c-1,1.4-2.2,2.5-3.6,3.3c-1.5,0.8-3.1,1.3-5,1.6c-2.4,0.3-4.3,0.2-5.7-0.3
			c-1.4-0.5-2.2-1.4-2.4-2.7c-0.1-0.6,0-1.2,0.2-1.9c0.2-0.6,0.5-1.1,0.8-1.4c0.8,0.3,1.7,0.4,2.6,0.5
			C44.9,61.7,45.7,61.7,46.4,61.6z"/>
	</g>
	<g>
		<path class="st7" d="M91.9,57.5c-1.1,1.3-2.6,2.4-4.1,3.2c-1.5,0.8-3.1,1.5-4.8,2.1c-3.2,1.2-6.5,2-9.7,2.9
			c-3.2,0.9-6.3,1.8-9.7,2.6c-3.3,0.7-6.7,1.3-10.1,1.8c-6.8,0.9-13.6,1.1-20.4,0.7c-3.4-0.3-6.8-0.7-10.1-1.3
			c-3.3-0.7-6.6-1.5-9.7-3l0.2-0.4c3.1,1.2,6.4,1.7,9.7,2.1c3.3,0.4,6.6,0.5,10,0.6c6.7,0,13.3-0.6,19.8-1.9
			c1.6-0.4,3.2-0.7,4.8-1.1c1.6-0.4,3.2-0.8,4.8-1.3c3.1-0.9,6.4-2,9.8-2.6c3.3-0.7,6.7-1.2,9.9-1.8c3.2-0.6,6.4-1.3,9.4-2.9
			L91.9,57.5z"/>
	</g>
	<g>
		<path class="st7" d="M96.5,57.3C90,50.5,82.3,45.1,73.9,41.5c-4.2-1.7-8.6-3.1-13.1-3.8c-4.5-0.8-9-1-13.5-0.7
			c-4.5,0.3-9,1.2-13.3,2.6c-4.3,1.4-8.4,3.4-12.3,5.8C14.1,50.4,7.4,57.1,2,64.8C5.9,56.2,12.2,48.6,20,42.9
			c7.8-5.7,17.3-9.2,27-9.9c4.9-0.3,9.7,0,14.5,0.9c4.7,1,9.4,2.5,13.7,4.7C83.8,43,91.2,49.5,96.5,57.3z"/>
	</g>
</g>
<g>
</g>
<g>
</g>
<g>
</g>
<g>
</g>
<g>
</g>
<g>
</g>
</svg>
